<svg width="148" height="229" viewBox="0 0 148 229" fill="none" xmlns="http://www.w3.org/2000/svg" xmlns:xlink="http://www.w3.org/1999/xlink">
<rect y="196" width="147.25" height="33" fill="#F6EEE3"/>
<rect y="196" width="147.25" height="33" fill="#D9D9D9" fill-opacity="0.49"/>
<mask id="mask0_180_1095" style="mask-type:alpha" maskUnits="userSpaceOnUse" x="116" y="199" width="28" height="27">
<rect x="116.197" y="199" width="27.0459" height="27" fill="url(#pattern0)"/>
</mask>
<g mask="url(#mask0_180_1095)">
<rect x="116.197" y="199" width="27.0459" height="27" fill="#F05A24"/>
</g>
<mask id="mask1_180_1095" style="mask-type:alpha" maskUnits="userSpaceOnUse" x="2" y="197" width="31" height="30">
<rect x="2.00342" y="197" width="30.051" height="30" fill="url(#pattern1)"/>
</mask>
<g mask="url(#mask1_180_1095)">
<rect x="2.00342" y="197" width="30.051" height="30" fill="#F05A24"/>
</g>
<path d="M54.5669 205.567C54.5669 203.358 56.3578 201.567 58.5669 201.567H89.8336C92.0427 201.567 93.8336 203.358 93.8336 205.567V217.167C93.8336 219.376 92.0427 221.167 89.8336 221.167H58.5669C56.3578 221.167 54.5669 219.376 54.5669 217.167V205.567Z" fill="#EF7557"/>
<ellipse cx="65.3853" cy="211.367" rx="9.81667" ry="9.8" fill="#95290E"/>
<rect width="147.25" height="196" rx="1" fill="#D9D9D9"/>
<g id="repeat-rate">
    <ellipse cx="29.8422" cy="30.7917" rx="20.5766" ry="20.5417" fill="#5BB7B3"/>
    <path d="M30 31L26.1538 36.7692L20 46" stroke="black" stroke-width="2" stroke-linecap="round"/>
</g>
<g id="echo">
    <ellipse cx="75.8371" cy="30.7917" rx="20.5766" ry="20.5417" fill="#5BB7B3"/>
    <path d="M76 32L72.1538 37.7692L66 47" stroke="black" stroke-width="2" stroke-linecap="round"/>
</g>
<g id="intensity">
    <ellipse cx="121.832" cy="30.7917" rx="20.5766" ry="20.5417" fill="#5BB7B3"/>
    <path d="M122 31L118.154 36.7692L112 46" stroke="black" stroke-width="2" stroke-linecap="round"/>
</g>
<path d="M18.9489 184.75C23.2351 184.75 26.7112 181.281 26.7112 177C26.7112 172.719 23.2351 169.25 18.9489 169.25C14.6626 169.25 11.1865 172.719 11.1865 177C11.1865 181.281 14.6626 184.75 18.9489 184.75Z" fill="#FF4400" stroke="#5BB7B3"/>
<path d="M89.1512 184.75C93.4375 184.75 96.9136 181.281 96.9136 177C96.9136 172.719 93.4375 169.25 89.1512 169.25C84.865 169.25 81.3889 172.719 81.3889 177C81.3889 181.281 84.865 184.75 89.1512 184.75Z" fill="#DCFF00" stroke="#5BB7B3"/>
<path d="M31.0527 171.333C31.0527 169.124 32.8436 167.333 35.0527 167.333H65.7852C67.9943 167.333 69.7852 169.124 69.7852 171.333V182.667C69.7852 184.876 67.9943 186.667 65.7852 186.667H35.0527C32.8436 186.667 31.0527 184.876 31.0527 182.667V171.333Z" fill="#5BB7B3"/>
<ellipse cx="40.7358" cy="177" rx="9.68311" ry="9.66667" fill="#2B615F"/>
<path d="M101.255 171.333C101.255 169.124 103.046 167.333 105.255 167.333H135.988C138.197 167.333 139.988 169.124 139.988 171.333V182.667C139.988 184.876 138.197 186.667 135.988 186.667H105.255C103.046 186.667 101.255 184.876 101.255 182.667V171.333Z" fill="#5BB7B3"/>
<ellipse cx="130.305" cy="177" rx="9.68311" ry="9.66667" fill="#2B615F"/>
<rect x="38.3149" y="58.5833" width="72.6233" height="106.333" fill="#7C7C7C"/>
<line x1="43.1565" y1="65.3333" x2="106.097" y2="65.3333" stroke="black"/>
<line x1="43.1565" y1="72.5833" x2="106.097" y2="72.5833" stroke="black"/>
<line x1="43.1565" y1="79.8333" x2="106.097" y2="79.8333" stroke="black"/>
<line x1="43.1565" y1="87.0833" x2="106.097" y2="87.0833" stroke="black"/>
<line x1="43.1565" y1="94.3333" x2="106.097" y2="94.3333" stroke="black"/>
<line x1="43.1565" y1="101.583" x2="106.097" y2="101.583" stroke="black"/>
<line x1="43.1565" y1="108.833" x2="106.097" y2="108.833" stroke="black"/>
<line x1="43.1565" y1="116.083" x2="106.097" y2="116.083" stroke="black"/>
<line x1="43.1565" y1="123.333" x2="106.097" y2="123.333" stroke="black"/>
<line x1="43.1565" y1="130.583" x2="106.097" y2="130.583" stroke="black"/>
<line x1="43.1565" y1="137.833" x2="106.097" y2="137.833" stroke="black"/>
<line x1="43.1565" y1="145.083" x2="106.097" y2="145.083" stroke="black"/>
<line x1="43.1565" y1="152.333" x2="106.097" y2="152.333" stroke="black"/>
<line x1="43.1565" y1="159.583" x2="106.097" y2="159.583" stroke="black"/>
<defs>
<pattern id="pattern0" patternContentUnits="objectBoundingBox" width="1" height="1">
<use xlink:href="#image0_180_1095" transform="translate(-0.1 -0.02) scale(0.00171429)"/>
</pattern>
<pattern id="pattern1" patternContentUnits="objectBoundingBox" width="1" height="1">
<use xlink:href="#image1_180_1095" transform="translate(-0.1 -0.04) scale(0.00171429)"/>
</pattern>
</defs>
</svg>
